<svg xmlns="http://www.w3.org/2000/svg" width="116.438" height="103.5" viewBox="0 0 116.438 103.5">
  <path id="Icon_awesome-brain" data-name="Icon awesome-brain" d="M42.047,0A12.9,12.9,0,0,0,29.554,9.744c-.162,0-.283-.04-.445-.04A12.949,12.949,0,0,0,16.172,22.641a11.921,11.921,0,0,0,.344,2.83A16.032,16.032,0,0,0,8.147,47.485a16.112,16.112,0,0,0,1.84,28.907,14.814,14.814,0,0,0-.283,2.85A14.546,14.546,0,0,0,24.258,93.8a13.707,13.707,0,0,0,2.426-.243,14.52,14.52,0,0,0,28.3-4.609V12.938A12.949,12.949,0,0,0,42.047,0Zm74.391,61.453a16.088,16.088,0,0,0-8.147-13.968,15.91,15.91,0,0,0,1.678-7.055A16.172,16.172,0,0,0,99.922,25.471,12.818,12.818,0,0,0,87.328,9.7c-.162,0-.3.04-.445.04a12.913,12.913,0,0,0-25.43,3.194V88.945a14.52,14.52,0,0,0,28.3,4.609,13.707,13.707,0,0,0,2.426.243,14.546,14.546,0,0,0,14.555-14.555,14.813,14.813,0,0,0-.283-2.85A16.172,16.172,0,0,0,116.438,61.453Z" fill="#00d3ff"/>
</svg>
